%TF.GenerationSoftware,KiCad,Pcbnew,(5.1.6)-1*%
%TF.CreationDate,2020-09-26T01:45:02-05:00*%
%TF.ProjectId,pcb,7063622e-6b69-4636-9164-5f7063625858,rev?*%
%TF.SameCoordinates,Original*%
%TF.FileFunction,Legend,Bot*%
%TF.FilePolarity,Positive*%
%FSLAX46Y46*%
G04 Gerber Fmt 4.6, Leading zero omitted, Abs format (unit mm)*
G04 Created by KiCad (PCBNEW (5.1.6)-1) date 2020-09-26 01:45:02*
%MOMM*%
%LPD*%
G01*
G04 APERTURE LIST*
%ADD10C,0.100000*%
%ADD11C,0.120000*%
G04 APERTURE END LIST*
D10*
X133121428Y-85128285D02*
X132521428Y-85128285D01*
X132521428Y-85356857D01*
X132550000Y-85414000D01*
X132578571Y-85442571D01*
X132635714Y-85471142D01*
X132721428Y-85471142D01*
X132778571Y-85442571D01*
X132807142Y-85414000D01*
X132835714Y-85356857D01*
X132835714Y-85128285D01*
X133121428Y-85985428D02*
X132807142Y-85985428D01*
X132750000Y-85956857D01*
X132721428Y-85899714D01*
X132721428Y-85785428D01*
X132750000Y-85728285D01*
X133092857Y-85985428D02*
X133121428Y-85928285D01*
X133121428Y-85785428D01*
X133092857Y-85728285D01*
X133035714Y-85699714D01*
X132978571Y-85699714D01*
X132921428Y-85728285D01*
X132892857Y-85785428D01*
X132892857Y-85928285D01*
X132864285Y-85985428D01*
X133121428Y-86528285D02*
X132521428Y-86528285D01*
X133092857Y-86528285D02*
X133121428Y-86471142D01*
X133121428Y-86356857D01*
X133092857Y-86299714D01*
X133064285Y-86271142D01*
X133007142Y-86242571D01*
X132835714Y-86242571D01*
X132778571Y-86271142D01*
X132750000Y-86299714D01*
X132721428Y-86356857D01*
X132721428Y-86471142D01*
X132750000Y-86528285D01*
X133121428Y-87071142D02*
X132807142Y-87071142D01*
X132750000Y-87042571D01*
X132721428Y-86985428D01*
X132721428Y-86871142D01*
X132750000Y-86814000D01*
X133092857Y-87071142D02*
X133121428Y-87014000D01*
X133121428Y-86871142D01*
X133092857Y-86814000D01*
X133035714Y-86785428D01*
X132978571Y-86785428D01*
X132921428Y-86814000D01*
X132892857Y-86871142D01*
X132892857Y-87014000D01*
X132864285Y-87071142D01*
X132721428Y-87614000D02*
X133121428Y-87614000D01*
X132721428Y-87356857D02*
X133035714Y-87356857D01*
X133092857Y-87385428D01*
X133121428Y-87442571D01*
X133121428Y-87528285D01*
X133092857Y-87585428D01*
X133064285Y-87614000D01*
X133121428Y-87899714D02*
X132521428Y-87899714D01*
X132892857Y-87956857D02*
X133121428Y-88128285D01*
X132721428Y-88128285D02*
X132950000Y-87899714D01*
X133521428Y-84485428D02*
X133521428Y-84828285D01*
X134121428Y-84656857D02*
X133521428Y-84656857D01*
X134092857Y-85256857D02*
X134121428Y-85199714D01*
X134121428Y-85085428D01*
X134092857Y-85028285D01*
X134035714Y-84999714D01*
X133807142Y-84999714D01*
X133750000Y-85028285D01*
X133721428Y-85085428D01*
X133721428Y-85199714D01*
X133750000Y-85256857D01*
X133807142Y-85285428D01*
X133864285Y-85285428D01*
X133921428Y-84999714D01*
X134121428Y-85542571D02*
X133721428Y-85542571D01*
X133778571Y-85542571D02*
X133750000Y-85571142D01*
X133721428Y-85628285D01*
X133721428Y-85714000D01*
X133750000Y-85771142D01*
X133807142Y-85799714D01*
X134121428Y-85799714D01*
X133807142Y-85799714D02*
X133750000Y-85828285D01*
X133721428Y-85885428D01*
X133721428Y-85971142D01*
X133750000Y-86028285D01*
X133807142Y-86056857D01*
X134121428Y-86056857D01*
X133721428Y-86342571D02*
X134321428Y-86342571D01*
X133750000Y-86342571D02*
X133721428Y-86399714D01*
X133721428Y-86514000D01*
X133750000Y-86571142D01*
X133778571Y-86599714D01*
X133835714Y-86628285D01*
X134007142Y-86628285D01*
X134064285Y-86599714D01*
X134092857Y-86571142D01*
X134121428Y-86514000D01*
X134121428Y-86399714D01*
X134092857Y-86342571D01*
X133807142Y-87542571D02*
X133807142Y-87342571D01*
X134121428Y-87342571D02*
X133521428Y-87342571D01*
X133521428Y-87628285D01*
X134121428Y-88114000D02*
X133807142Y-88114000D01*
X133750000Y-88085428D01*
X133721428Y-88028285D01*
X133721428Y-87914000D01*
X133750000Y-87856857D01*
X134092857Y-88114000D02*
X134121428Y-88056857D01*
X134121428Y-87914000D01*
X134092857Y-87856857D01*
X134035714Y-87828285D01*
X133978571Y-87828285D01*
X133921428Y-87856857D01*
X133892857Y-87914000D01*
X133892857Y-88056857D01*
X133864285Y-88114000D01*
X133721428Y-88399714D02*
X134121428Y-88399714D01*
X133778571Y-88399714D02*
X133750000Y-88428285D01*
X133721428Y-88485428D01*
X133721428Y-88571142D01*
X133750000Y-88628285D01*
X133807142Y-88656857D01*
X134121428Y-88656857D01*
%TO.C,C2*%
X133080000Y-82941000D02*
X131080000Y-82941000D01*
X133080000Y-84191000D02*
X131080000Y-84191000D01*
%TO.C,R1*%
X129048000Y-84719000D02*
X131048000Y-84719000D01*
X129048000Y-85969000D02*
X131048000Y-85969000D01*
D11*
%TO.C,U1*%
X131180000Y-79162000D02*
X132980000Y-79162000D01*
X132980000Y-82382000D02*
X130530000Y-82382000D01*
%TO.C,C2*%
D10*
X132258571Y-83482666D02*
X132282380Y-83458857D01*
X132306190Y-83387428D01*
X132306190Y-83339809D01*
X132282380Y-83268380D01*
X132234761Y-83220761D01*
X132187142Y-83196952D01*
X132091904Y-83173142D01*
X132020476Y-83173142D01*
X131925238Y-83196952D01*
X131877619Y-83220761D01*
X131830000Y-83268380D01*
X131806190Y-83339809D01*
X131806190Y-83387428D01*
X131830000Y-83458857D01*
X131853809Y-83482666D01*
X131853809Y-83673142D02*
X131830000Y-83696952D01*
X131806190Y-83744571D01*
X131806190Y-83863619D01*
X131830000Y-83911238D01*
X131853809Y-83935047D01*
X131901428Y-83958857D01*
X131949047Y-83958857D01*
X132020476Y-83935047D01*
X132306190Y-83649333D01*
X132306190Y-83958857D01*
%TO.C,R1*%
X130274190Y-85260666D02*
X130036095Y-85094000D01*
X130274190Y-84974952D02*
X129774190Y-84974952D01*
X129774190Y-85165428D01*
X129798000Y-85213047D01*
X129821809Y-85236857D01*
X129869428Y-85260666D01*
X129940857Y-85260666D01*
X129988476Y-85236857D01*
X130012285Y-85213047D01*
X130036095Y-85165428D01*
X130036095Y-84974952D01*
X130274190Y-85736857D02*
X130274190Y-85451142D01*
X130274190Y-85594000D02*
X129774190Y-85594000D01*
X129845619Y-85546380D01*
X129893238Y-85498761D01*
X129917047Y-85451142D01*
%TO.C,U1*%
X131751428Y-80378357D02*
X132237142Y-80378357D01*
X132294285Y-80406928D01*
X132322857Y-80435500D01*
X132351428Y-80492642D01*
X132351428Y-80606928D01*
X132322857Y-80664071D01*
X132294285Y-80692642D01*
X132237142Y-80721214D01*
X131751428Y-80721214D01*
X132351428Y-81321214D02*
X132351428Y-80978357D01*
X132351428Y-81149785D02*
X131751428Y-81149785D01*
X131837142Y-81092642D01*
X131894285Y-81035500D01*
X131922857Y-80978357D01*
%TD*%
M02*
